<?xml version="1.0" encoding="iso-8859-1"?>
<!-- Generator: Adobe Illustrator 16.0.0, SVG Export Plug-In . SVG Version: 6.00 Build 0)  -->
<!DOCTYPE svg PUBLIC "-//W3C//DTD SVG 1.1//EN" "http://www.w3.org/Graphics/SVG/1.1/DTD/svg11.dtd">
<svg version="1.1" id="Capa_1" xmlns="http://www.w3.org/2000/svg" xmlns:xlink="http://www.w3.org/1999/xlink" x="0px" y="0px"
	 width="88.032px" height="88.032px" viewBox="0 0 88.032 88.032" style="enable-background:new 0 0 88.032 88.032;"
	 xml:space="preserve">
<g>
	<g>
		<path d="M27.556,46.842h12.848c0.553,0,1-0.449,1-1v-6.425c0-2.142-0.916-4.065-2.371-5.422h10.626
			c-1.453,1.355-2.371,3.281-2.371,5.422v6.425c0,0.551,0.447,1,1,1h12.849c0.553,0,1-0.449,1-1v-2.374
			c0.104-0.159,0.186-0.341,0.186-0.548c0-0.207-0.076-0.387-0.186-0.547v-2.957c0-2.142-0.916-4.065-2.371-5.422h1.557
			c0.553,0,1-0.448,1-1v-3.965c0-0.023-0.014-0.042-0.016-0.064c-0.006-0.09-0.021-0.177-0.054-0.263
			c-0.012-0.035-0.021-0.068-0.038-0.104c-0.039-0.081-0.091-0.155-0.152-0.226c-0.019-0.021-0.029-0.043-0.049-0.062
			c-0.004-0.004-0.006-0.01-0.011-0.015l-5.93-5.558V8.117c0-0.553-0.447-1-1-1H33.801c-0.553,0-1,0.447-1,1v14.624L26.872,28.3
			c-0.004,0.004-0.007,0.01-0.011,0.014c-0.021,0.019-0.031,0.042-0.049,0.062c-0.062,0.07-0.112,0.145-0.151,0.226
			c-0.017,0.033-0.027,0.066-0.039,0.103c-0.03,0.086-0.047,0.173-0.053,0.263c-0.002,0.022-0.015,0.041-0.015,0.064v3.965
			c0,0.552,0.447,1,1,1h1.371c-1.454,1.355-2.371,3.282-2.371,5.422v6.423C26.556,46.393,27.004,46.842,27.556,46.842z
			 M28.556,44.842v-0.92h10.848v0.92H28.556z M49.287,44.842v-0.92h10.848v0.92H49.287z M60.135,39.417v2.503H49.287v-2.503
			c0-2.989,2.436-5.422,5.424-5.422C57.702,33.995,60.135,36.428,60.135,39.417z M34.801,9.12h19.271v13.311H34.801V9.12z
			 M33.926,24.429h21.021l3.84,3.602H30.086L33.926,24.429z M28.556,31.995V30.03h31.763v1.965H28.556z M33.98,33.995
			c2.989,0,5.424,2.434,5.424,5.422v2.503H28.556v-2.503C28.556,36.428,30.991,33.995,33.98,33.995z"/>
		<path d="M16.254,62.495c0.05,0.293,0.228,0.547,0.482,0.694c0.256,0.148,0.563,0.179,0.843,0.076
			c1.737-0.629,3.626-0.297,5.033,0.82c0.364,0.289,0.879,0.289,1.243,0c1.386-1.102,3.232-1.438,4.941-0.854
			c0.359,0.121,0.761,0.029,1.03-0.239c0.269-0.271,0.36-0.67,0.237-1.031c-0.104-0.305-0.156-0.614-0.156-0.93
			c0-1.108,0.622-2.103,1.623-2.591c0.285-0.139,0.488-0.405,0.546-0.721c0.057-0.313-0.04-0.635-0.26-0.865
			c-0.513-0.541-0.793-1.243-0.793-1.981c0-1.59,1.295-2.883,2.885-2.883c1.59,0,2.883,1.293,2.883,2.883
			c0,0.347-0.063,0.688-0.188,1.019c-0.12,0.315-0.028,0.672,0.175,0.944c0.201,0.272,0.568,0.416,0.91,0.397l0.104-0.004
			c1.683,0,3.184,1.129,3.648,2.746c0.112,0.392,0.452,0.674,0.856,0.717c0.403,0.041,0.795-0.166,0.986-0.524
			c0.663-1.245,1.948-2.021,3.356-2.021c0.694,0,1.379,0.193,1.979,0.562c0.33,0.203,0.75,0.195,1.072-0.019
			c0.324-0.215,0.494-0.596,0.438-0.979c-0.023-0.185-0.047-0.368-0.047-0.563c0-2.096,1.705-3.801,3.805-3.801
			c2.098,0,3.803,1.705,3.803,3.801c0,0.72-0.207,1.423-0.596,2.033c-0.174,0.271-0.205,0.607-0.087,0.904
			c0.116,0.299,0.37,0.521,0.683,0.602c1.814,0.465,3.254,1.877,3.75,3.685c0.101,0.356,0.384,0.629,0.742,0.711
			c0.072,0.019,0.146,0.024,0.224,0.024c0.284,0,0.563-0.123,0.754-0.344c1-1.151,2.442-1.812,3.959-1.812
			c0.937,0,1.854,0.254,2.67,0.732c0.295,0.176,0.66,0.188,0.967,0.031c0.306-0.156,0.511-0.459,0.541-0.804
			c0.244-2.718,2.486-4.769,5.222-4.769c0.248,0,0.489,0.023,0.729,0.06c0.457,0.063,0.896-0.19,1.065-0.623
			c0.8-2.013,2.711-3.313,4.873-3.313c0.554,0,1-0.447,1-1c0-0.551-0.446-1-1-1c-2.729,0-5.174,1.502-6.416,3.883
			c-0.088-0.002-0.174-0.004-0.258-0.004c-3.303,0-6.089,2.168-6.961,5.229c-2.256-0.812-4.861-0.404-6.762,1.012
			c-0.756-1.432-1.977-2.578-3.461-3.24c0.234-0.637,0.357-1.313,0.357-2c0-3.198-2.604-5.801-5.804-5.801
			c-2.928,0-5.354,2.178-5.745,5c-1.959-0.531-4.125,0.062-5.543,1.441c-0.88-1.297-2.264-2.205-3.825-2.479
			c0.015-0.146,0.021-0.293,0.021-0.438c0-2.691-2.189-4.883-4.883-4.883c-2.694,0-4.885,2.188-4.885,4.883
			c0,0.854,0.223,1.682,0.638,2.41c-1.095,0.902-1.743,2.244-1.754,3.711c-1.65-0.188-3.295,0.197-4.677,1.082
			c-1.551-0.988-3.438-1.354-5.276-0.988c-0.936-2.812-3.502-4.787-6.512-4.936c-1.161-2.574-3.729-4.262-6.601-4.262
			c-0.553,0-1,0.448-1,1c0,0.553,0.447,1,1,1c2.26,0,4.258,1.438,4.974,3.588c0.144,0.426,0.547,0.701,1.002,0.684l0.116-0.01
			c0.053-0.002,0.104-0.008,0.153-0.008C13.649,58.148,15.821,59.977,16.254,62.495z"/>
		<path d="M40.604,11.92l-3.286,3.286c-0.194,0.194-0.293,0.451-0.293,0.707s0.099,0.513,0.293,0.707l2.912,2.913
			c0.194,0.194,0.45,0.293,0.707,0.293c0.256,0,0.513-0.099,0.707-0.293c0.392-0.391,0.392-1.022,0-1.414l-2.205-2.206l2.579-2.579
			c0.392-0.392,0.392-1.022,0-1.414C41.626,11.531,40.995,11.531,40.604,11.92z"/>
		<path d="M45.664,11.663c-0.525-0.146-1.082,0.165-1.229,0.697L42.7,18.653c-0.147,0.532,0.165,1.082,0.697,1.229
			c0.09,0.024,0.179,0.036,0.268,0.036c0.438,0,0.841-0.291,0.962-0.733l1.736-6.292C46.512,12.361,46.2,11.811,45.664,11.663z"/>
		<path d="M51.627,15.47l-2.816-3.474c-0.35-0.429-0.979-0.494-1.405-0.146c-0.431,0.349-0.494,0.979-0.146,1.406l2.188,2.696
			L46.75,18.14c-0.43,0.349-0.492,0.979-0.146,1.406c0.195,0.243,0.484,0.37,0.774,0.37c0.224,0,0.445-0.072,0.63-0.225l3.477-2.818
			c0.215-0.174,0.338-0.419,0.361-0.673C51.871,15.95,51.803,15.685,51.627,15.47z"/>
		<path d="M44.016,88.032c24.271,0,44.016-19.744,44.016-44.015C88.032,19.746,68.287,0,44.016,0S0,19.745,0,44.016
			C0,68.287,19.746,88.032,44.016,88.032z M44.016,2c23.167,0,42.016,18.849,42.016,42.016c0,23.168-18.849,42.017-42.016,42.017
			C20.848,86.032,2,67.184,2,44.018C2,20.85,20.848,2,44.016,2z"/>
	</g>
</g>
<g>
</g>
<g>
</g>
<g>
</g>
<g>
</g>
<g>
</g>
<g>
</g>
<g>
</g>
<g>
</g>
<g>
</g>
<g>
</g>
<g>
</g>
<g>
</g>
<g>
</g>
<g>
</g>
<g>
</g>
</svg>
