<?xml version="1.0" encoding="iso-8859-1"?>
<!-- Generator: Adobe Illustrator 16.0.0, SVG Export Plug-In . SVG Version: 6.00 Build 0)  -->
<!DOCTYPE svg PUBLIC "-//W3C//DTD SVG 1.1//EN" "http://www.w3.org/Graphics/SVG/1.1/DTD/svg11.dtd">
<svg version="1.1" id="Capa_1" xmlns="http://www.w3.org/2000/svg" xmlns:xlink="http://www.w3.org/1999/xlink" x="0px" y="0px"
	 width="475.375px" height="475.375px" viewBox="0 0 475.375 475.375" style="enable-background:new 0 0 475.375 475.375;"
	 xml:space="preserve">
<g>
	<g>
		<rect x="154.204" y="162.164" width="171.521" height="10.61"/>
		<path d="M292,49.244H187.927v71.879h104.063L292,49.244L292,49.244z M226.898,72.003L212.97,85.931l11.908,11.913
			c2.112,2.117,2.112,5.529,0,7.636c-1.052,1.053-2.436,1.582-3.818,1.582c-1.387,0-2.769-0.529-3.818-1.582l-15.725-15.73
			c-1.052-1.047-1.582-2.437-1.582-3.818s0.53-2.766,1.582-3.818l17.745-17.745c2.112-2.109,5.519-2.109,7.636,0
			C229.01,66.485,229.01,69.897,226.898,72.003z M240.986,103.605c-0.659,2.386-2.824,3.957-5.2,3.957
			c-0.48,0-0.96-0.063-1.442-0.197c-2.876-0.791-4.572-3.76-3.768-6.637l9.374-33.972c0.788-2.879,3.789-4.559,6.637-3.771
			c2.868,0.794,4.566,3.763,3.76,6.642L240.986,103.605z M278.005,91.13l-18.763,15.225c-1.008,0.81-2.205,1.207-3.401,1.207
			c-1.572,0-3.128-0.68-4.192-1.996c-1.883-2.318-1.52-5.719,0.791-7.594l14.564-11.821l-11.822-14.557
			c-1.878-2.318-1.52-5.72,0.791-7.594c2.304-1.886,5.727-1.521,7.594,0.788l15.214,18.76c0.943,1.155,1.312,2.586,1.187,3.958
			C279.83,88.868,279.166,90.197,278.005,91.13z"/>
		<polygon points="296.726,131.917 183.202,131.917 162.464,151.364 317.466,151.364 		"/>
		<path d="M295.445,183.574c-16.143,0-29.289,13.144-29.289,29.278v13.516h58.572v-13.516
			C324.728,196.712,311.591,183.574,295.445,183.574z"/>
		<rect x="266.156" y="237.175" width="58.572" height="4.96"/>
		<path d="M212.778,212.852c0-16.14-13.144-29.278-29.286-29.278c-16.145,0-29.288,13.144-29.288,29.278v13.516h58.574V212.852z"/>
		<path d="M237.687,0C106.624,0,0,106.624,0,237.684c0,131.066,106.629,237.69,237.687,237.69
			c131.063,0,237.688-106.624,237.688-237.68C475.375,106.629,368.75,0,237.687,0z M143.403,212.852
			c0-11.562,4.947-21.951,12.804-29.278h-7.404c-2.987,0-5.4-2.418-5.4-5.4v-21.41c0-0.124,0.063-0.227,0.077-0.34
			c0.031-0.498,0.118-0.968,0.285-1.427c0.066-0.189,0.124-0.366,0.211-0.551c0.211-0.438,0.49-0.841,0.82-1.221
			c0.092-0.108,0.153-0.232,0.261-0.33c0.021-0.021,0.032-0.053,0.058-0.074l32.018-30.02V43.843c0-2.982,2.413-5.4,5.4-5.4h114.864
			c2.989,0,5.399,2.418,5.399,5.4v78.97l32.016,30.02c0.021,0.021,0.042,0.053,0.062,0.073c0.111,0.098,0.169,0.227,0.264,0.33
			c0.343,0.379,0.602,0.783,0.812,1.221c0.095,0.179,0.147,0.355,0.222,0.556c0.158,0.458,0.253,0.928,0.284,1.426
			c0,0.113,0.079,0.217,0.079,0.34v21.41c0,2.982-2.404,5.4-5.399,5.4h-8.411c7.857,7.322,12.804,17.724,12.804,29.278v15.968
			c0.58,0.859,1.013,1.838,1.013,2.956s-0.417,2.094-1.013,2.958v12.817c0,2.975-2.404,5.4-5.4,5.4h-69.372
			c-2.984,0-5.399-2.426-5.399-5.4v-34.691c0-11.562,4.946-21.953,12.804-29.281h-57.386c7.853,7.322,12.804,17.724,12.804,29.281
			v34.691c0,2.975-2.416,5.4-5.4,5.4h-69.375c-2.987,0-5.4-2.426-5.4-5.4V212.852z M449.212,293.055
			c-11.675,0-22.001,7.029-26.314,17.893c-0.928,2.315-3.29,3.687-5.759,3.365c-1.297-0.185-2.604-0.322-3.955-0.322
			c-14.733,0-26.862,11.069-28.191,25.751c-0.169,1.851-1.255,3.485-2.922,4.329c-1.645,0.828-3.617,0.78-5.21-0.169
			c-4.388-2.595-9.365-3.966-14.417-3.966c-8.185,0-15.974,3.555-21.374,9.788c-1.038,1.191-2.536,1.856-4.076,1.856
			c-0.39,0-0.791-0.043-1.202-0.122c-1.936-0.442-3.485-1.914-4.008-3.839c-2.679-9.761-10.441-17.381-20.25-19.896
			c-1.683-0.433-3.037-1.635-3.681-3.259c-0.644-1.604-0.464-3.417,0.464-4.873c2.104-3.307,3.217-7.093,3.217-10.979
			c0-11.316-9.207-20.534-20.535-20.534c-11.321,0-20.529,9.218-20.529,20.534c0,1.023,0.111,2.041,0.259,3.038
			c0.306,2.077-0.622,4.145-2.368,5.284c-1.745,1.16-4.008,1.207-5.795,0.115c-3.238-1.982-6.919-3.048-10.685-3.048
			c-7.599,0-14.544,4.177-18.125,10.916c-1.031,1.931-3.148,3.048-5.324,2.827c-2.183-0.232-4.019-1.751-4.622-3.871
			c-2.523-8.732-10.629-14.829-19.704-14.829l-0.562,0.021c-1.843,0.105-3.831-0.675-4.92-2.142
			c-1.097-1.477-1.587-3.396-0.941-5.115c0.675-1.782,1.015-3.628,1.015-5.484c0-8.585-6.982-15.577-15.567-15.577
			c-8.585,0-15.573,6.992-15.573,15.577c0,3.981,1.517,7.784,4.282,10.695c1.181,1.238,1.695,2.995,1.397,4.672
			c-0.303,1.692-1.403,3.143-2.948,3.892c-5.405,2.637-8.765,7.995-8.765,13.985c0,1.688,0.288,3.38,0.849,5.031
			c0.662,1.945,0.155,4.113-1.287,5.568c-1.463,1.466-3.623,1.94-5.561,1.287c-9.229-3.154-19.214-1.324-26.681,4.608
			c-1.973,1.562-4.749,1.562-6.719,0c-7.599-6.032-17.792-7.825-27.179-4.43c-1.5,0.564-3.169,0.391-4.551-0.411
			c-1.384-0.786-2.344-2.167-2.603-3.739c-2.349-13.61-14.062-23.482-27.875-23.482c-0.282,0-0.556,0.021-0.825,0.042l-0.627,0.037
			c-2.463,0.111-4.638-1.387-5.411-3.686c-3.868-11.592-14.655-19.375-26.86-19.375c-2.984,0-5.4-2.415-5.4-5.4
			c0-2.984,2.416-5.399,5.4-5.399c15.504,0,29.365,9.106,35.646,23.019c16.248,0.785,30.111,11.47,35.158,26.646
			c9.928-1.982,20.137-0.011,28.498,5.331c7.457-4.762,16.329-6.85,25.249-5.854c0.061-7.904,3.565-15.15,9.471-20.039
			c-2.241-3.938-3.438-8.4-3.438-13.004c0-14.539,11.821-26.378,26.373-26.378c14.536,0,26.37,11.828,26.37,26.378
			c0,0.786-0.04,1.582-0.114,2.368c8.435,1.466,15.902,6.364,20.659,13.378c7.662-7.467,19.356-10.657,29.924-7.788
			c2.12-15.23,15.22-27,31.029-27c17.275,0,31.34,14.059,31.34,31.334c0,3.713-0.659,7.341-1.925,10.801
			c8.011,3.575,14.603,9.766,18.689,17.497c10.235-7.646,24.331-9.83,36.503-5.479c4.714-16.521,19.765-28.229,37.6-28.229
			c0.453,0,0.917,0.011,1.387,0.026c6.702-12.862,19.907-20.973,34.641-20.973c2.985,0,5.4,2.426,5.4,5.4
			C454.655,290.64,452.198,293.055,449.212,293.055z"/>
		<rect x="154.204" y="237.175" width="58.574" height="4.96"/>
	</g>
</g>
<g>
</g>
<g>
</g>
<g>
</g>
<g>
</g>
<g>
</g>
<g>
</g>
<g>
</g>
<g>
</g>
<g>
</g>
<g>
</g>
<g>
</g>
<g>
</g>
<g>
</g>
<g>
</g>
<g>
</g>
</svg>
