{"asset":{"version":"2.0","generator":"babylon.js glTF exporter for 3dsmax 2018 v20200519.2"},"scene":0,"scenes":[{"nodes":[0,1,2,3]}],"nodes":[{"mesh":0,"translation":[-0.24436979,0.0380685441,-0.104544528],"rotation":[0.0,0.8196791,0.0,0.572823],"scale":[1.07739985,1.27762735,1.07739985],"name":"cup_01"},{"mesh":1,"name":"cup_shadow_catcher"},{"mesh":2,"translation":[-0.227044567,1.383487,-0.03228293],"rotation":[0.0,0.819679,0.0,0.5728231],"scale":[1.02768564,1.218674,1.02768564],"name":"coffee_foam"},{"name":"Default light"}],"meshes":[{"primitives":[{"attributes":{"POSITION":1,"NORMAL":2,"TEXCOORD_0":3},"indices":0,"material":0}],"name":"cup_01"},{"primitives":[{"attributes":{"POSITION":5,"NORMAL":6,"TEXCOORD_0":7},"indices":4,"material":1}],"name":"cup_shadow_catcher"},{"primitives":[{"attributes":{"POSITION":9,"NORMAL":10,"TEXCOORD_0":11},"indices":8,"material":2}],"name":"coffee_foam"}],"accessors":[{"bufferView":0,"componentType":5123,"count":11664,"type":"SCALAR","name":"accessorIndices"},{"bufferView":1,"componentType":5126,"count":11664,"max":[1.82062244,2.29450059,2.072516],"min":[-2.28909326,0.0242922977,-1.90364122],"type":"VEC3","name":"accessorPositions"},{"bufferView":1,"byteOffset":139968,"componentType":5126,"count":11664,"type":"VEC3","name":"accessorNormals"},{"bufferView":2,"componentType":5126,"count":11664,"type":"VEC2","name":"accessorUVs"},{"bufferView":0,"byteOffset":23328,"componentType":5123,"count":6,"type":"SCALAR","name":"accessorIndices"},{"bufferView":1,"byteOffset":279936,"componentType":5126,"count":6,"max":[7.50000048,0.0,7.50000048],"min":[-7.50000048,0.0,-7.50000048],"type":"VEC3","name":"accessorPositions"},{"bufferView":1,"byteOffset":280008,"componentType":5126,"count":6,"type":"VEC3","name":"accessorNormals"},{"bufferView":2,"byteOffset":93312,"componentType":5126,"count":6,"type":"VEC2","name":"accessorUVs"},{"bufferView":0,"byteOffset":23340,"componentType":5123,"count":834,"type":"SCALAR","name":"accessorIndices"},{"bufferView":1,"byteOffset":280080,"componentType":5126,"count":834,"max":[1.74193752,0.0155987553,1.7422235],"min":[-1.74193752,-0.0155985113,-1.74222374],"type":"VEC3","name":"accessorPositions"},{"bufferView":1,"byteOffset":290088,"componentType":5126,"count":834,"type":"VEC3","name":"accessorNormals"},{"bufferView":2,"byteOffset":93360,"componentType":5126,"count":834,"type":"VEC2","name":"accessorUVs"}],"bufferViews":[{"buffer":0,"byteLength":25008,"name":"bufferViewScalar"},{"buffer":0,"byteOffset":25008,"byteLength":300096,"byteStride":12,"name":"bufferViewFloatVec3"},{"buffer":0,"byteOffset":325104,"byteLength":100032,"byteStride":8,"name":"bufferViewFloatVec2"}],"buffers":[{"uri":"03.bin","byteLength":425136}],"materials":[{"pbrMetallicRoughness":{"baseColorFactor":[0.815686345,0.815686345,0.815686345,1.0],"metallicFactor":0.01,"roughnessFactor":0.0},"doubleSided":true,"name":"porc"},{"pbrMetallicRoughness":{"metallicFactor":0.0,"roughnessFactor":0.450053632},"name":"Material #64"},{"pbrMetallicRoughness":{"baseColorTexture":{"index":0},"metallicFactor":0.0,"roughnessFactor":0.0},"name":"kjhkj"}],"textures":[{"sampler":0,"source":0,"name":"205782419b24db6.jpg"}],"images":[{"uri":"./205782419b24db6.jpg"}],"samplers":[{"magFilter":9729,"minFilter":9987}]}