{"asset":{"version":"2.0","generator":"babylon.js glTF exporter for 3ds max 2019 v1.3.33"},"scene":0,"scenes":[{"nodes":[0,1,2],"extensions":{}}],"nodes":[{"mesh":0,"translation":[0.0,0.0,0.0],"rotation":[0.0,0.0,0.0,1.0],"scale":[1.0,1.0,1.0],"name":"banana_shadow_catcher"},{"mesh":1,"translation":[1.75537109,1631.23315,-3.79753828],"rotation":[0.6157834,-0.0340505019,0.787081,0.0124441283],"scale":[1.0,1.0,1.0],"name":"banana"},{"translation":[0.0,0.0,0.0],"rotation":[0.0,0.0,0.0,1.0],"scale":[1.0,1.0,1.0],"name":"Default light"}],"meshes":[{"primitives":[{"attributes":{"POSITION":1,"NORMAL":2,"TEXCOORD_0":3},"indices":0,"mode":4,"material":0}],"name":"banana_shadow_catcher"},{"primitives":[{"attributes":{"POSITION":5,"NORMAL":6,"TEXCOORD_0":7},"indices":4,"mode":4,"material":1}],"name":"banana"}],"accessors":[{"bufferView":0,"componentType":5123,"count":6,"type":"SCALAR","name":"accessorIndices"},{"bufferView":1,"componentType":5126,"count":6,"max":[7500.0,0.0,7500.0],"min":[-7500.0,0.0,-7500.0],"type":"VEC3","name":"accessorPositions"},{"bufferView":1,"byteOffset":72,"componentType":5126,"count":6,"type":"VEC3","name":"accessorNormals"},{"bufferView":2,"componentType":5126,"count":6,"type":"VEC2","name":"accessorUVs"},{"bufferView":0,"byteOffset":12,"componentType":5123,"count":45006,"type":"SCALAR","name":"accessorIndices"},{"bufferView":1,"byteOffset":144,"componentType":5126,"count":45006,"max":[5092.56055,1718.19519,2140.59741],"min":[-5055.30225,-711.6107,-2691.7583],"type":"VEC3","name":"accessorPositions"},{"bufferView":1,"byteOffset":540216,"componentType":5126,"count":45006,"type":"VEC3","name":"accessorNormals"},{"bufferView":2,"byteOffset":48,"componentType":5126,"count":45006,"type":"VEC2","name":"accessorUVs"}],"bufferViews":[{"buffer":0,"byteLength":90024,"name":"bufferViewScalar"},{"buffer":0,"byteOffset":90024,"byteLength":1080288,"byteStride":12,"name":"bufferViewFloatVec3"},{"buffer":0,"byteOffset":1170312,"byteLength":360096,"byteStride":8,"name":"bufferViewFloatVec2"}],"buffers":[{"uri":"banana.bin","byteLength":1530408}],"materials":[{"pbrMetallicRoughness":{"baseColorFactor":[0.19199349,0.0490196161,0.906862855,1.0],"metallicFactor":0.0,"roughnessFactor":0.9},"emissiveFactor":[0.0,0.0,0.0],"alphaMode":"OPAQUE","name":"Material #64"},{"pbrMetallicRoughness":{"baseColorFactor":[1.0,1.0,1.0,1.0],"baseColorTexture":{"index":0,"texCoord":0},"metallicFactor":0.0,"roughnessFactor":0.9},"emissiveFactor":[0.0,0.0,0.0],"alphaMode":"OPAQUE","name":"banana2"}],"textures":[{"sampler":0,"source":0,"name":"banana.jpg"}],"images":[{"uri":"banana.jpg"}],"samplers":[{"magFilter":9729,"minFilter":9987,"wrapS":10497,"wrapT":10497}]}