{"asset":{"version":"2.0","generator":"babylon.js glTF exporter for 3ds max 2019 v1.3.33"},"scene":0,"scenes":[{"nodes":[0,1,2],"extensions":{}}],"nodes":[{"mesh":0,"translation":[1.75537109,47.6645737,-3.79760742],"rotation":[0.0,0.0,0.0,1.0],"scale":[1.0,1.0,1.0],"name":"cup_01"},{"mesh":1,"translation":[0.0,0.0,0.0],"rotation":[0.0,0.0,0.0,1.0],"scale":[1.0,1.0,1.0],"name":"cup_shadow_catcher"},{"translation":[0.0,0.0,0.0],"rotation":[0.0,0.0,0.0,1.0],"scale":[1.0,1.0,1.0],"name":"Default light"}],"meshes":[{"primitives":[{"attributes":{"POSITION":1,"NORMAL":2,"TEXCOORD_0":3},"indices":0,"mode":4,"material":0},{"attributes":{"POSITION":5,"NORMAL":6,"TEXCOORD_0":7},"indices":4,"mode":4,"material":1}],"name":"cup_01"},{"primitives":[{"attributes":{"POSITION":9,"NORMAL":10,"TEXCOORD_0":11},"indices":8,"mode":4,"material":0}],"name":"cup_shadow_catcher"}],"accessors":[{"bufferView":0,"componentType":5123,"count":2958,"type":"SCALAR","name":"accessorIndices"},{"bufferView":1,"componentType":5126,"count":2958,"max":[1839.13013,2297.32568,2173.83276],"min":[-2391.207,24.292244,-1933.87036],"type":"VEC3","name":"accessorPositions"},{"bufferView":1,"byteOffset":35496,"componentType":5126,"count":2958,"type":"VEC3","name":"accessorNormals"},{"bufferView":2,"componentType":5126,"count":2958,"type":"VEC2","name":"accessorUVs"},{"bufferView":0,"byteOffset":5916,"componentType":5123,"count":45000,"type":"SCALAR","name":"accessorIndices"},{"bufferView":1,"byteOffset":70992,"componentType":5126,"count":45000,"max":[5092.561,1718.19531,2267.957],"min":[-5096.071,-42.3355637,-2691.75879],"type":"VEC3","name":"accessorPositions"},{"bufferView":1,"byteOffset":610992,"componentType":5126,"count":45000,"type":"VEC3","name":"accessorNormals"},{"bufferView":2,"byteOffset":23664,"componentType":5126,"count":45000,"type":"VEC2","name":"accessorUVs"},{"bufferView":0,"byteOffset":95916,"componentType":5123,"count":6,"type":"SCALAR","name":"accessorIndices"},{"bufferView":1,"byteOffset":1150992,"componentType":5126,"count":6,"max":[7500.0,0.0,7500.0],"min":[-7500.0,0.0,-7500.0],"type":"VEC3","name":"accessorPositions"},{"bufferView":1,"byteOffset":1151064,"componentType":5126,"count":6,"type":"VEC3","name":"accessorNormals"},{"bufferView":2,"byteOffset":383664,"componentType":5126,"count":6,"type":"VEC2","name":"accessorUVs"}],"bufferViews":[{"buffer":0,"byteLength":95928,"name":"bufferViewScalar"},{"buffer":0,"byteOffset":95928,"byteLength":1151136,"byteStride":12,"name":"bufferViewFloatVec3"},{"buffer":0,"byteOffset":1247064,"byteLength":383712,"byteStride":8,"name":"bufferViewFloatVec2"}],"buffers":[{"uri":"test.bin","byteLength":1630776}],"materials":[{"pbrMetallicRoughness":{"baseColorFactor":[0.815686345,0.815686345,0.815686345,1.0],"metallicFactor":0.01,"roughnessFactor":0.0},"emissiveFactor":[0.0,0.0,0.0],"alphaMode":"OPAQUE","name":"porc"},{"pbrMetallicRoughness":{"baseColorFactor":[1.0,1.0,1.0,1.0],"baseColorTexture":{"index":0,"texCoord":0},"metallicFactor":0.0,"roughnessFactor":0.9},"emissiveFactor":[0.0,0.0,0.0],"alphaMode":"OPAQUE","name":"banana2"}],"textures":[{"sampler":0,"source":0,"name":"banana.jpg"}],"images":[{"uri":"banana.jpg"}],"samplers":[{"magFilter":9729,"minFilter":9987,"wrapS":10497,"wrapT":10497}]}